<svg id="Layer_1" data-name="Layer 1" xmlns="http://www.w3.org/2000/svg" viewBox="0 0 180.81 177.36"><title>ElectrikApp-Logo</title><path d="M150.7,157c-9.9,10.4-22.4,16.1-36,20.1-3.7,1.1-8.1.2-11,3.6H97.6a20.41,20.41,0,0,0-14.2,0H77.3c-8.6-3.4-17.4-6.4-25.9-10.2-6.4-2.9-12.5-6.4-17.2-12,6.5-2.2,13,1.3,19.5.3,2.3-.2,4.6.5,6.9.4-2.6-1.4-6.9.3-8.1-4,2.6-4.3,7-3.5,11-3.8,7.2,2.7,14.8,3.5,22.2,5.3,0,3.9-3.2,3.1-5.4,3.7-1.3.4-1.7,1.4-.5.8.1,0,.4.4.7.5,1.8,1,2.8-.2,4-1.2a14.54,14.54,0,0,1,6.2-3.1c11.8-.6,23.1-2.7,33.2-9.5l-.1.1a7.65,7.65,0,0,1,3.9-1.1c2.4,0,5,1.7,7-.9,1.3-5.4,4.7-9.6,7.5-14.1h0c5-.8,6.5,3.5,9.2,6.1a16.49,16.49,0,0,1,1.5,6.9c.1,1.8.4,3.6.4,5.4C152.5,152.6,151.1,154.6,150.7,157Z" transform="translate(-2.81 -3.34)" fill="#8ec25d"/><path d="M83.4,180.7c4.7-3.3,9.5-3.2,14.2,0Z" transform="translate(-2.81 -3.34)" fill="#a9cf84"/><path d="M122,115.9c-11.9,4.2-23.2,10.7-36.5,9.8-3.3-2.3,2.6-5.7-.4-7-3.6-1.6-7.7-4.9-12-.8a5.5,5.5,0,0,1-4.8,1.1c-3.4-.6-7.6,4.8-9.8-.3-2.4-5.4,2.8-7.2,6.5-9.3l-.1.1c.3-.2.6-.3.9-.5,4.4-.7,10.6.4,12.1-4.6A14,14,0,0,0,73,89.5l.1.1c-4.9-3.9-8.8.7-13,1.6C54,92.6,47.9,94.1,46.7,85c3.3-3,7.7-3.8,11.8-5,5.9-1.8,12.4-2,8.9-11.4-1.5-4.1,2.8-4.6,5.6-5.5,8-2.5,16.2-4.6,24.1-7.6,8.3-3.2,14.9,1.1,20.5,5.3,9.2,6.9,17.6,2.3,25.7-.8,5.9-2.3-.7-5.9-1.2-9l.9-.9c1.5-1.6,4.8,1.9,5.4-2.1-.2-2.5-1.2-4.9-.5-7.5a11.87,11.87,0,0,1,1.6-2.3c4.1-5.3,8.4-5.3,11.7.5,2.2,3.9,6.3,7,5.9,12.2a15.06,15.06,0,0,0-9.5,13c3.6-1.4,1.7-8.6,7.8-6.8,3.1,4.6-.8,9.8,1.1,14.5a17,17,0,0,1-3.1,11.9c-4.1,2.3-8.2,4.6-12.9,1.3a9,9,0,0,1-2-3.4c-.5-1.5-1-1.3-1.7,0-1.5,2.5-2.2,5.4-3.7,7.8-2.5,2.1-6,.8-8.6,2.3-3.8,2.4-8.4,3.3-11.6,6.7-.1,2.4-.6,4.8-.1,7.2A18.77,18.77,0,0,1,122,115.9Z" transform="translate(-2.81 -3.34)" fill="#8ec25d"/><path d="M8.6,61l1.1-2.2c1.3-.6,2-1.9,3.3-2.4a2.59,2.59,0,0,1,2.3,1.1c1.2,1.6.7,4.3,3.1,5.1,1.6,0,3.2-.5,4.6.6a6.81,6.81,0,0,1,.8,2.4,21.12,21.12,0,0,1-.2,2.6c-1.5,5.4,1.8,9.5,3.8,13.9.1,2.4.3,4.8-1.6,6.7-8.5,7.2-8.8,7.1-13-4.4,1.3-.4-.8.4-.4-.9.3-1.1-.7-1.2-.5-.3.5,3.5.9,7,1.1,10.6a33.2,33.2,0,0,0,5.1,14.6c5,7.8,2.7,17.4,3,26.2.1,1.9-2.1,2.2-3.9,1.2-14-21.2-15.4-44.1-9.5-68,5.3.8,2.7-2.5,2.4-4.6A17,17,0,0,0,8.6,61Z" transform="translate(-2.81 -3.34)" fill="#8fc25b"/><path d="M24.5,87.4c2.4-1.5,1.9-3.9,2-6.1-2.9-4.3-5.5-8.6-4-14.2v-2A3.36,3.36,0,0,1,24.8,64c3.1.4,3.8,3.3,5.6,5.1-1.2,13-3.9,25.8-.7,39.1,3.6,14.8,13.6,25.1,23,36a4.07,4.07,0,0,1-2.5,1.3c-6.6-.8-8.9-6.7-12.7-10.7-3-3.1-5-7.2-10.1-7.3-1.3,0-3.4-1.2-3.1-2,2.8-7.1-5.4-14.8-3.9-17.1C24.6,101.3,20.5,93.6,24.5,87.4Z" transform="translate(-2.81 -3.34)" fill="#90c366"/><path d="M42.6,50.3,30.9,65.6a4.43,4.43,0,0,1-3-2.8,5.72,5.72,0,0,1,.1-2.6c-.2-1.9,5.4-4.8-1-5.6-3.9-.9-6.9-2.8-7.2-7.2,2.9-1.8,3.9-4.1,1.9-7.2,4-6.2,8.5-11.9,15.8-14.7,2.2.7,2.1,2.6,2.3,4.4.4,2.5,2.2,4.6,1.9,7.3a3.74,3.74,0,0,1-2.3,2.6C37.6,44.1,44.4,46,42.6,50.3Z" transform="translate(-2.81 -3.34)" fill="#90c25e"/><path d="M65,32.7l-.5.3-.6-.2C57.1,35,51.9,33,48,27c3.8-4.3,2-11.2,6.8-15h-.1c7.1-1.5,13.6-5.1,20.9-5.8,2.7,0,5.7,0,6.2,3.5.4,2.5-1.7,2.9-3.7,3.8-2.6,1.2.7,6.2-4.1,7-3.6.6-7.7.1-10.8,1.8s-.6,3,1.3,3.8c1.9.5,4.3,1,4.5,3.1C69.4,31.9,66.1,31.1,65,32.7Z" transform="translate(-2.81 -3.34)" fill="#8ec15d"/><path d="M8.6,61l1.7.1a5,5,0,0,1-.1,6C2.9,79.2,5.8,92.7,7,105.3,8,116,11.3,127,18.4,136c4.9,2.5,12.7,3.3,7.1,12l-1.4.5C2,122.4-2.4,93,8.6,61Z" transform="translate(-2.81 -3.34)" fill="#90c264"/><path d="M182.6,105.6c-1.5-2.3-2.7-4.9-6-5a12,12,0,0,0-6.3,2.5,5.38,5.38,0,0,0-.9,2.5c0,.3.1.6.1.9a.52.52,0,0,0,.4.2c4.2,1.4,4.2,8.1,0,9.4a4.56,4.56,0,0,1-2.9.9,4.64,4.64,0,0,1-3.9-1.9l-.3.3c-.4,6.7,1.5,12.2,8.3,15C178,123.7,186.6,117.6,182.6,105.6Z" transform="translate(-2.81 -3.34)" fill="#90c261"/><path d="M65,109.5c-1.7,2.8-5.4,4.3-5.3,9.1,10.5-3,21.1-5.5,32.5-1-1.3,3.6-7.9,3.1-6.8,8.1-2.7-7.7-7.9-8.8-14.8-5.5a24.69,24.69,0,0,1-2.9,1c-5.2,1.7-11.8,4.4-13.5-2.9C52.7,111.4,59.6,110.2,65,109.5Z" transform="translate(-2.81 -3.34)" fill="#91c261"/><path d="M166.6,50.8a107.4,107.4,0,0,1-5.6-9.2c-3.1-6.6-6.5-7.4-10.6-.9-1.8-1.7-3.3-3.7-5.2-5.1-7.1-7,.3-7.4,4.3-9.2l1.3-.2c13.9,11.2,22.5,25.6,26.4,42.9a2.7,2.7,0,0,1-2.4.6c-2.3-1.6-3-4.2-4-6.6a17.82,17.82,0,0,0-2.3-4.3,23.92,23.92,0,0,1-1.3-2.1C166.5,54.7,165,52.9,166.6,50.8Z" transform="translate(-2.81 -3.34)" fill="#8ec262"/><path d="M50.9,144.2h1.8l6.3,3.9c1.1,1.6,3,2.5,4,4.2-2.4,3.9-7.8.2-10.1,4a2.69,2.69,0,0,1,.2,3.8c-.1.1-.1.2-.2.2-6.5,1.9-12.6.7-18.7-1.9l-3.9-3.6a5.89,5.89,0,0,1-.6-4.1c3.9-3.9,6.7,0,9.9,1.3.8.4,1.5.8,2.3,1.2C48.5,153.8,47,146.4,50.9,144.2Z" transform="translate(-2.81 -3.34)" fill="#8ec158"/><path d="M131.7,41.1C115.1,30.1,97,25.9,77.3,29c-1.3-3.5,1.5-4.2,3.7-5.3,2-.4,4,0,5.9.1,5,.7,9.7-1.7,14.6-1.5,12.1,2.3,23.8,5.5,31.5,16.3A2.67,2.67,0,0,1,131.7,41.1Z" transform="translate(-2.81 -3.34)" fill="#8fc260"/><path d="M63.1,152.3c-2.7-.1-4-1.5-4-4.2,16.8,6.2,33.8,10.8,51.7,4.5l13.1-4.6c-9.6,9.5-21.9,10.4-34.4,10.4a2.81,2.81,0,0,1-3.9.1l-.1-.1C78.4,154.7,69.8,157,63.1,152.3Z" transform="translate(-2.81 -3.34)" fill="#93c468"/><path d="M165.5,106.1c1.2-1,2.4-1.9,3.7-2.8-.4-3.3-2.5-5.2-5.1-6.7-6.2-1.5-8.6,4-12.5,6.8-3.6,6.2.8,14.1-4.1,20.1,5.6,6.6,6.7-.5,9.3-3,2-1.7-2-7.2,4-6.5a12.1,12.1,0,0,1,1.4-4.3A4.49,4.49,0,0,1,165.5,106.1Z" transform="translate(-2.81 -3.34)" fill="#90c261"/><path d="M121.9,97.5c-1.7-.6-3.8-3.4-2.4-3,6.5,1.8,9.3-5,14.6-5.1,2.8,3.6-1.5,5.8-1.8,8.8-2.6,6.4-4.1,13.4-10.3,17.7-2.1-3.1.7-7.3-2.1-10.3C121.4,103.1,124.2,101,121.9,97.5Z" transform="translate(-2.81 -3.34)" fill="#91c25b"/><path d="M147.5,123.5c5.1,4,5-4.8,8.9-3.7l1.3.4c3.5,2.6,2.8,8.2,7.4,10.1,1.5.5,3.3.4,4.4,1.9a11.18,11.18,0,0,1-4.2,8.1,4.41,4.41,0,0,1-4,.8c-1.8-.7-2.7-2.2-3.9-3.5-2.2-2.6-5.7.3-8-1.8-1.5-3.2-4.4-6-3.2-10.1Z" transform="translate(-2.81 -3.34)" fill="#8ec25b"/><path d="M77.2,8.2c-8.1-2.1-14.4,6.3-22.5,3.9C75.4,1.5,96.6,1,118.4,8a5.81,5.81,0,0,1-2.8,2.1C102.7,11.2,90.1,7.8,77.2,8.2Z" transform="translate(-2.81 -3.34)" fill="#96c469"/><path d="M132.3,98.2c.6-2.9,1.2-5.9,1.8-8.8a6.75,6.75,0,0,1,8.1,0c2.3-2.6,3.3-6.8,8.1-6.1,4.1,3.4,8.1.7,12.2-.1a4.41,4.41,0,0,1,3.2-1.5,6.15,6.15,0,0,1,2.3.7l.7,1c-8.3,4.4-17.7,5.7-26.5,8.6C138.4,93.5,134.8,94.7,132.3,98.2Z" transform="translate(-2.81 -3.34)" fill="#90c364"/><path d="M169.4,132.2l-4.9,1.8c-3-4.6-2.9-10.9-8.1-14.2h0l-3.6-11.1c4.5-.1,4.5,4.5,7.5,5.1a2.73,2.73,0,0,1,1.9.8l.5,1c2.7,5,5.5,10,8.2,14.9Z" transform="translate(-2.81 -3.34)" fill="#8cc05b"/><path d="M20.4,46.8c1.8,3.3,4,5.9,8.1,6.1,2.4,2.7,1.7,5.4,0,8.1h0c-4.4-1.7-1.9,3.5-4.1,4.1h-2v-2c-3.2-3.3-6.2-6.8-8.1-11.1a6.47,6.47,0,0,0-.4-1.3c.9-4.1,3.5-7.1,6.3-10l1,1A3.89,3.89,0,0,1,20.4,46.8Z" transform="translate(-2.81 -3.34)" fill="#91c262"/><path d="M48.8,24.5c3.4,5.8,8.8,7.8,15,8.4l-2.3,2c-3.1,1.5-6.5,2.6-8.8,5.6l-.2.2c-3.8,2.5-5.8-.2-8-2.6l-.6-1.2a8.17,8.17,0,0,1,.1-2.7c1-2.7-.6-5.3-.5-7.9A4.25,4.25,0,0,1,44.9,24a5,5,0,0,1,2.7-.2Z" transform="translate(-2.81 -3.34)" fill="#8ec25f"/><path d="M38.7,26.5c-6.9,3-11.8,8.4-16.3,14.2a1.28,1.28,0,0,1-1.7.4.1.1,0,0,1-.1-.1l-.4-.4c5.5-9.3,13.3-16.4,22.6-21.9,2.6,1.3,4.1,2.9,2,5.8h0C43.1,26.1,41.5,28,38.7,26.5Z" transform="translate(-2.81 -3.34)" fill="#91c365"/><path d="M164.6,97.5c-5.9-1.5-8.2,5-13,5.8,3.1-7.6,9.6-10,16.9-9.3,6.9.6,12.7,3.7,14.1,11.6l-5.9-4A22.51,22.51,0,0,1,164.6,97.5Z" transform="translate(-2.81 -3.34)" fill="#98c56d"/><path d="M174.7,69.1l2.4-.1c3.7,12,3,13.1-8.3,14.5l-.4-.4c-2.3-5.6.5-9.8,3.5-14A2.13,2.13,0,0,1,174.7,69.1Z" transform="translate(-2.81 -3.34)" fill="#90c364"/><path d="M46.7,85.1c4,6.1,8.8,7.3,15.5,4,3.2-1.5,7.7-6.1,10.9.6C67,91.2,60.9,92.8,54.7,94,47.2,95.5,43.7,93.2,46.7,85.1Z" transform="translate(-2.81 -3.34)" fill="#95c469"/><path d="M73,89.5c10,.6,6.8,10.1,6.5,13.7-.7,7.6-8.6,6.4-14.5,6.3C78.1,104.6,78.1,104.6,73,89.5Z" transform="translate(-2.81 -3.34)" fill="#91c261"/><path d="M81.3,24.5l-4,4.5c-3.9,1.9-7.8,3.7-12.3,3.8.8-1,2.5-2.4,2.2-3.1-.6-2-2.7-.8-4.2-1.1C67.6,20.1,74.1,20.6,81.3,24.5Z" transform="translate(-2.81 -3.34)" fill="#92c35d"/><path d="M136.2,16.2c6.3,1.3,10.5,5.4,14.5,9.9l-.6.5c-7.8.8-15.7-2.5-18.8-7.7C132.2,16.8,135,18,136.2,16.2Z" transform="translate(-2.81 -3.34)" fill="#8ec262"/><path d="M136.2,16.2c-.8,1.7-2.4,2.1-4.1,2.2-10.4-1.1-15.1-4.1-16.2-10.1l2.5-.3C125.5,8.2,130.5,12.8,136.2,16.2Z" transform="translate(-2.81 -3.34)" fill="#90c25e"/><path d="M54.9,12.1c-.6,3.5-1.5,7-1.9,10.6-.4,3.4-2.2,2.4-4.1,1.8h0a35.74,35.74,0,0,1-4.6-6.4A18.32,18.32,0,0,1,54.9,12.1Z" transform="translate(-2.81 -3.34)" fill="#8ec25f"/><path d="M42.6,50.3c-2.5-3.4-5.1-6.8-7.6-10.2-.6-.9-2.2-2.2.1-2.7,1-.2,2.4.8,3.6,1.3a28.76,28.76,0,0,1,7.5,4.5,4.32,4.32,0,0,1,1.2,2.2Z" transform="translate(-2.81 -3.34)" fill="#91c365"/><path d="M142.2,131.9c.4,5.9-7.1,9.8-4,16.3-2.5,1.4-4.9,1.6-6.8-.9-.8-4.3,3.3-6,4.9-9A14.05,14.05,0,0,1,142.2,131.9Z" transform="translate(-2.81 -3.34)" fill="#91c360"/><path d="M146.2,125.8c1.8,3.2,5,6,4.1,10.3a1.39,1.39,0,0,1,.5,1.4c-.2.5-.3.7-.5.7-4.4.2-4.6-5.3-8.2-6.2Z" transform="translate(-2.81 -3.34)" fill="#90c364"/><path d="M142,51l-10.3-9.9.5-.6c1.2-1.8,2.5-3.1,4.9-2.1,4.1,3.1,8.6,6,5.3,12.3Z" transform="translate(-2.81 -3.34)" fill="#8fc260"/><path d="M24.5,65c.5-2.1-1.2-4.6,1.1-6.2.4-.2,2,1.4,3,2.1L31,65.5c-.2,1.1-.4,2.3-.6,3.4C27.3,69.4,26.6,66.2,24.5,65Z" transform="translate(-2.81 -3.34)" fill="#8bc057"/><path d="M136.2,138.3c.1,3.4-3,5.1-4.1,7.9a5,5,0,0,1-4.1,2l-4.3-.2Z" transform="translate(-2.81 -3.34)" fill="#93c468"/><path d="M150.7,157c-2.4-3-.1-4.8,1.7-6.7a4.07,4.07,0,0,1,4.1-3.1,3.34,3.34,0,0,1,2.3,1.4C156.9,152.2,154.6,155.3,150.7,157Z" transform="translate(-2.81 -3.34)" fill="#90c364"/><path d="M160.5,140.1l4.7.3c-1.5,3.2-3,6.5-6.4,8.2l-.5-.5C156.1,144.6,156.7,141.9,160.5,140.1Z" transform="translate(-2.81 -3.34)" fill="#91c360"/><path d="M44.8,36.7c2.8,1,4.4,4.3,7.8,3.9l-5.2,4.8-.7-.7C44.7,42.3,42.3,40,44.8,36.7Z" transform="translate(-2.81 -3.34)" fill="#91c365"/><path d="M44.2,18c2.8,1.2,4.6,3.2,4.6,6.4H44.7l-2-5.8A1.83,1.83,0,0,1,44.2,18Z" transform="translate(-2.81 -3.34)" fill="#8ac052"/><path d="M52.8,40.4c1.1-4.6,4.8-5.4,8.8-5.6Z" transform="translate(-2.81 -3.34)" fill="#91c365"/><path d="M14.4,56.9,9.8,58.7c1.2-2.9,1.6-6.1,4.3-8.2l.6.6C15.7,53.1,16.2,55.1,14.4,56.9Z" transform="translate(-2.81 -3.34)" fill="#90c366"/><path d="M30.6,150.3c-.1,1.6-.2,3.1-.3,4.7a15.92,15.92,0,0,1-6.2-6.4l.6-.5C27.6,146.4,29.4,147.5,30.6,150.3Z" transform="translate(-2.81 -3.34)" fill="#90c264"/><path d="M150.4,138.1v-2c2.7.5,5.4-8.2,8.1,0,1.3,6.5-2.3,9.3-8.1,10.1Z" transform="translate(-2.81 -3.34)" fill="#91c360"/><path d="M150.4,146.2c2.5-3.6,8-4.7,8.1-10.1a4.15,4.15,0,0,1,2,4c-.7,2.6-1.5,5.3-2.2,7.9l-5.9,2.3C150.7,149.4,150.4,147.9,150.4,146.2Z" transform="translate(-2.81 -3.34)" fill="#8dc05d"/><path d="M52.9,160.4v-4c4.3.1,8.7-.8,12.5,2.6C61.6,163.1,57.2,161.4,52.9,160.4Z" transform="translate(-2.81 -3.34)" fill="#8dc263"/><path d="M85.4,158.4h4l-4,4.1a4.29,4.29,0,0,1-6.1,0c-1.5-1-3.7-1-4.3-4.1Z" transform="translate(-2.81 -3.34)" fill="#8bc056"/><path d="M132.4,166c-.7-4.2,1.1-6.7,4.2-8.2.3-.1,1.7,1,1.9,1.8C139.6,164.5,133.7,163,132.4,166Z" transform="translate(-2.81 -3.34)" fill="#8ac055"/><path d="M124.6,158.5c3.2-3.4,5.3-5.7,11-6.3C132.1,155.5,130.2,157.8,124.6,158.5Z" transform="translate(-2.81 -3.34)" fill="#93c468"/><path d="M128,148.2c.9-1.6,2.4-2,4.1-2,1.5,2.4,3.9,1.9,6.1,2Q133.1,152.7,128,148.2Z" transform="translate(-2.81 -3.34)" fill="#89bf55"/><path d="M79.3,162.5h6.1c-.3,2.1-.8,4-3.5,3.7C79.8,165.8,79.6,164.1,79.3,162.5Z" transform="translate(-2.81 -3.34)" fill="#8ec263"/><path d="M142.5,50.7c.7-5.4-4.3-8-6.3-12,2.1-4.5,5.4-6.1,10.2-4.1,4.1.2,4.1,3.1,4.1,6.1h-2c-1.4,3.2-.4,5.9,2,8.1.4,1.5,1.6,3.5,1.1,4.4-1.6,2.4-3.1.1-4.6-.7S143.9,51.3,142.5,50.7Z" transform="translate(-2.81 -3.34)" fill="#8ec158"/><path d="M166.6,50.8l2,6.1a2.84,2.84,0,0,1-4,0h0c-2.7,2.4-2.7,6-4,9-.8,1.8-1,4.3-3.7,3.7-1.9-.4-2.1-2.4-2.4-4C153.4,58.5,160.1,50.4,166.6,50.8Z" transform="translate(-2.81 -3.34)" fill="#8ec158"/><path d="M121.9,87.3c-2.9-3,2.3-8.2-3-10.5a3.87,3.87,0,0,1,5.4-1.2,2.65,2.65,0,0,1,.6.5c2.3,2,8.1,2.1,5.4,7.4-.8,1.6-2.9,2.6-4.4,3.8a2.67,2.67,0,0,1-4,0Z" transform="translate(-2.81 -3.34)" fill="#8ec156"/><path d="M79.3,71.1c-.4,2.7-1.2,6.4-4.5,4.8-2.7-1.3-4.3-5.8-2.9-8.8,1.6-3.5,4.8-2.7,7.4-.1C80.7,68.5,79.4,69.8,79.3,71.1Z" transform="translate(-2.81 -3.34)" fill="#8ec15a"/><path d="M164.6,56.9h4.1a9.33,9.33,0,0,1,1.9,6.4,8.42,8.42,0,0,1-.4,2.7,8.34,8.34,0,0,1-2.2,3.3,5.67,5.67,0,0,1-3.5,1.8C160,66.4,166.6,61.7,164.6,56.9Z" transform="translate(-2.81 -3.34)" fill="#8bc165"/><path d="M164.6,71.1l2-2c7.2,4.7.6,9.3-.1,14l-4,.1Z" transform="translate(-2.81 -3.34)" fill="#8dc157"/><path d="M150.3,83.3c-2.5,2.4-4.6,5-8.1,6.1-.8-4.2.8-7.5,4-10.1a2.72,2.72,0,0,1,3.9-.1l.1.1Z" transform="translate(-2.81 -3.34)" fill="#8fc154"/><path d="M98.3,66.3c4.6-3.2,7.8-4.4,11.4-1.9a2.13,2.13,0,0,1-.1,2.3C106.1,69.3,102.8,66.9,98.3,66.3Z" transform="translate(-2.81 -3.34)" fill="#8ec157"/><path d="M148.4,74c-2.1-4.4-4.4-6.7-1.8-9.6a2.68,2.68,0,0,1,2.6-.1C151,66.9,150.6,69.6,148.4,74Z" transform="translate(-2.81 -3.34)" fill="#8ac058"/><path d="M121.9,87.3h4c-.2,2.8-1.7,4.1-4.4,3.9-1.3-.1-2.9-.6-2.6-2.1C119.1,88.4,120.9,88,121.9,87.3Z" transform="translate(-2.81 -3.34)" fill="#8dc267"/><path d="M150.4,48.8c-7.2-1.1-5.7-4.3-2-8.1A13.61,13.61,0,0,1,150.4,48.8Z" transform="translate(-2.81 -3.34)" fill="#8ec262"/><path d="M121.9,97.5c4.7,3.2,4.3,4.6-2,8.1A13.61,13.61,0,0,1,121.9,97.5Z" transform="translate(-2.81 -3.34)" fill="#8dc264"/><path d="M79.3,71.1c-2.3-1.4-.2-2.7,0-4,1.9.5,5.3-1,4.9,2.5C84,71.6,81.1,71,79.3,71.1Z" transform="translate(-2.81 -3.34)" fill="#8dc268"/><path d="M150.3,79.3h-4c-1.4-1.2-2.2-2.8-.1-3.5C149.1,74.7,150.1,76.7,150.3,79.3Z" transform="translate(-2.81 -3.34)" fill="#91c364"/><path d="M30.6,150.3l-5.9-2.2c4.7-7.6-5.3-7.4-6.3-12-.9-10.5,2.5-21.6-5.6-31.1-2.3-2.6-1.7-7.6-2.5-11.5.3-1.6,2.6,1.8,2.4-1-.3-3.2-1.2-6.5,1.6-9.2,3.3,1.9.8,6.4,4.2,8.6,2.7-.2,2.2-5.5,5.9-4.6-2.6,6.4,8.4,14.8-3,20.3-1.6.8,1.5,2.9,3.1,3.9,5.9,3.7,8.7,7.7-.4,13,10.7-1.5,12.6,7.4,18,11.8,3,2.5,3.9,7.4,8.7,7.8a15.17,15.17,0,0,1-5.6,12.4c-2.9,2.4-4.1.7-4.5-2.3.8-.6,1.6-1.2,2.4-1.9-.8.6-1.5,1.3-2.4,1.9Z" transform="translate(-2.81 -3.34)" fill="#8ec25e"/><path d="M14.3,83.3c0,3.3.4,6.6-.1,9.9-.7,5.5-2.6,0-4,.3,1.7-5.7-3.4-11.4-.9-17.5C13.5,77.4,13.8,80.4,14.3,83.3Z" transform="translate(-2.81 -3.34)" fill="#8dc263"/><path d="M14.4,56.9c.1-1.9.1-3.9.2-5.8,3.7,3.2,8.1,6.1,7.9,11.9l-4.1,2c-2.7-2-1.6-6-4-8.1Z" transform="translate(-2.81 -3.34)" fill="#8cc157"/><path d="M22.5,67.1c1.3,4.7,2.7,9.4,4,14.2C20.8,77.7,18.6,73.3,22.5,67.1Z" transform="translate(-2.81 -3.34)" fill="#8cc157"/><path d="M14.3,56.9c3.7,1.5,4.3,4.6,4.1,8.1C10.2,65.8,16.3,59.3,14.3,56.9Z" transform="translate(-2.81 -3.34)" fill="#90c366"/><path d="M10.2,67c0-2,0-4,.1-6,3.2,3,1.9,6.7,1.6,10.3C9.6,70.5,10.5,68.5,10.2,67Z" transform="translate(-2.81 -3.34)" fill="#91c24e"/><path d="M38.7,26.5l6.1-2.1c-2.8,3.4,8.9,6.8,0,10.1-4,1.2-5.2-3.1-8.1-4.1Z" transform="translate(-2.81 -3.34)" fill="#8cc057"/><path d="M20.7,41a5.66,5.66,0,0,1,1.8-.3c2.5,1.4,5,2.9,5.5,6.6l-7.5-.5Z" transform="translate(-2.81 -3.34)" fill="#8cc156"/><path d="M44.8,36.7l1.9,8c-4.2,0-6.2-2.8-8-5.9l2-2a2.69,2.69,0,0,1,3.8-.2.37.37,0,0,1,.3.1Z" transform="translate(-2.81 -3.34)" fill="#91c257"/><path d="M28.6,61V52.9c1.7-.3,4.3-2.9,5-.4C34.5,56.1,32,59.1,28.6,61Z" transform="translate(-2.81 -3.34)" fill="#90c366"/><path d="M44.8,36.7H40.7l-4.1-6.1c3.5-.3,5.3,2.9,8.1,4.1l.1,2Z" transform="translate(-2.81 -3.34)" fill="#91c365"/><path d="M146.3,34.6l-10.2,4.1-3.9,1.8c-7.5-10.5-19.2-12.9-30.6-16-2.1-2.9-7.7,1.7-8.6-3.9,1.3-1,2.7-1.7,3.4-1.2-3.3.2-7.6-.1-11.5,0,1.8.3,4.1-.3,6.3.4,1.9,5.6-4.5,3.9-5.8,6.6l-4.1-1.9c-6.4-.1-12.9-.4-18.3,4.1-8,2-3.8-5.2-4.5-7.3-1.4-4.2,2.8-.8,4.2-1.4,4.3-2,10,1.3,13.6-3.3-1.3-3.7-4.4,1-5.8-1.7,1.4-3.2,4.5-2,6.8-2.6,5.1-1.4,3.6-2.8-.2-4,9-3.9,18.4-1.8,27.6-1.2,3.7.2,7.3.9,11,1.3,3.9,5.8,11.7,5.3,16.2,10.1,5.3,4.3,11.5,6.7,18,8.3C150.1,29.9,140.3,28.5,146.3,34.6Z" transform="translate(-2.81 -3.34)" fill="#8ec25f"/><path d="M164.6,97.5c4.5-.1,9.2-.5,12.1,4.1-1.5,2.4-3.9,1.9-6.1,2-.7.9-1.3.8-1.9-.1C167.4,101.5,164.2,100.7,164.6,97.5Z" transform="translate(-2.81 -3.34)" fill="#89bf4c"/><path d="M162.1,112.1c-.5-4.5,1-7.6,8.2-5.9.1-.8.2-1.7.3-2.6a12.1,12.1,0,0,1-1.9-.1c-8-.8-10.3,3-8.4,10.3l2.4,1.8c-.1-.6-.3-1.2-.4-1.8A9.85,9.85,0,0,1,162.1,112.1Z" transform="translate(-2.81 -3.34)" fill="#98c56d"/><path d="M177.9,115.2c-.6-2.7-2.7-3.2-4.9-3.5a7.72,7.72,0,0,1-.2,1.5c.4,1.7,1.1,3.3,3.3,3.8a1.39,1.39,0,0,0,.9,0A1.56,1.56,0,0,0,177.9,115.2Z" transform="translate(-2.81 -3.34)" fill="#8bc057"/><path d="M168.6,67.1v-2c1.8-.9.1-5.3,4-4l2.1,8.1h-2C170.4,70.3,169.5,68.6,168.6,67.1Z" transform="translate(-2.81 -3.34)" fill="#90c255"/><path d="M172.6,61l-4,4V56.9A6.52,6.52,0,0,1,172.6,61Z" transform="translate(-2.81 -3.34)" fill="#8ec25d"/><path d="M85.4,26.4c-.3-4.4,4.7-3.3,6.1-6a1.28,1.28,0,0,1,1.8-.3l.3.3c1.7,3.3,6.4.8,8.1,4.1C96.1,24.5,91,27.6,85.4,26.4Z" transform="translate(-2.81 -3.34)" fill="#92c35d"/><path d="M156.4,119.8c8.2,1.6,6.7,8.7,8.1,14.2C159.2,130.8,158.6,124.8,156.4,119.8Z" transform="translate(-2.81 -3.34)" fill="#90c261"/><path d="M168.6,67.1l4.1,2-4.3,14-.9.1-.9-.1c-1-4.7,5.1-9.3.1-14Z" transform="translate(-2.81 -3.34)" fill="#8ec25d"/><path d="M40.7,154.3l1.9-5.3c.6.6,1.7,1.1,1.8,1.8.4,2.6-1.5,3.3-3.7,3.5Z" transform="translate(-2.81 -3.34)" fill="#8ec264"/><path d="M31.8,146.5a3.8,3.8,0,0,1-2.4-4.6,2.21,2.21,0,0,1,1.6,0C32.3,143.2,33,144.7,31.8,146.5Z" transform="translate(-2.81 -3.34)" fill="#90c264"/><path d="M121.6,24.4c3.7.5,7.9-1.1,9.5,3.6.2.5-.8,2-1.4,2C125.6,30.4,122.9,28.5,121.6,24.4Z" transform="translate(-2.81 -3.34)" fill="#8ec262"/><path d="M93.5,20.5H81.7V19.1H99.3C98.1,21.7,95.5,19.8,93.5,20.5Z" transform="translate(-2.81 -3.34)" fill="#8dc266"/><path d="M117.6,22.4l1.7-2.5a31.12,31.12,0,0,1,2.3,2.8c.1.2,1.5,2.1-.6,1.7A15.7,15.7,0,0,1,117.6,22.4Z" transform="translate(-2.81 -3.34)" fill="#8ec262"/></svg>