<svg id="Layer_1" data-name="Layer 1" xmlns="http://www.w3.org/2000/svg" viewBox="0 0 545.47 542.28"><title>Logo-Google</title><path d="M224.72,4.52c3-.17,6.07-.31,9.09-.57.23,0,.39-.89.57-1.36,3.23.34,6.45-.66,9.67,0,2.42,0,4.84-.07,7.25,0,1.15.05,2-.07,2.4-1.31,2.82.38,5.66-.84,8.48.1.69.23.67-.69,1.19-.75C266.59.56,269.84.91,273,0c.33.68,1.07,1.74,1.44,1.51,2.65-1.63,5.6.26,8.24-.86h4.44c1.24,0,2.71-.55,3.28,1.4.11.39,1.29.47,1.92-.12a40.21,40.21,0,0,1,9.67.65h0c3.11,1.35,6.24,2.57,9.55.55,3.29.5,6.63.61,9.9,1.26s6.86.73,10,2.35a.88.88,0,0,0,.94.43c3-.13,6,0,8.66,1.59,3,.9,6.06,1.38,9,2.43.66.47,1.56.14,2.23.63,2.73,1.1,6,.87,8.18,3.37,3.21.18,6.12,1.47,9.12,2.39,3.32,1.27,6.5,2.86,9.82,4.11,3.09,1.75,6.53,2.7,9.71,4.25,3.51,1.06,6.31,3.52,9.68,4.85a6.8,6.8,0,0,1,1.25.42c2.91,1.59,5.54,3.67,8.65,4.9,2.27,2,5.48,2.57,7.72,4.67.79.54,1,1.67,2.08,1.94a51.13,51.13,0,0,1,9.24,5.6l3.56,2.37c2,1.86,4.37,3.14,6.49,4.78a39.56,39.56,0,0,1,5.57,4.68c1.3,1.13,2.91,1.85,4.14,3.08,2.39,2.15,5.15,4,6.76,6.88-.07,1.68.37,2.72,2.34,1.88,3.39.69,4.53,4.23,7.28,5.77a20.27,20.27,0,0,1,2.44,2c1.69,2.79,4.22,4.83,6.43,7.15.77.81,2.1,1.49.73,2.84-.14.2-.67.35-.6.36,1.06.27,1.44,2.24,3,1.23,2.95,1.85,4.75,4.79,6.95,7.35,1.31,1.11,1.91,2.82,3.24,3.93a37.42,37.42,0,0,1,4.65,5.92c1.34,2.63,3.62,4.63,5,7.27a5.17,5.17,0,0,1,2.1,2.72c2.63,3,3.64,7.16,7.12,9.49,1.42,3.25,3.4,6.2,4.95,9.38,2.11,2.65,2.78,6.12,4.93,8.75a3.72,3.72,0,0,1,.5,1.24c1.41,3.3,4,6,4.48,9.79a107.89,107.89,0,0,1,4.84,9.83,46.1,46.1,0,0,0,3.89,9.15c.68,3.28,2.18,6.35,2.59,9.71,2,2.79,2.44,6.12,3.17,9.35.14.25.26.52.39.78.74,3.12,2.61,5.92,2.69,9.24a8,8,0,0,1,1,3.26,11,11,0,0,0,1.67,6.41c.28,3.24,1.31,6.41.88,9.71a44.38,44.38,0,0,1,2.09,10c-1.5,3.27,0,6.37.55,9.52h0c.3,3.21.94,6.41.66,9.66h-.66c-.84-.7-.61-1.68-.73-2.75a30.78,30.78,0,0,0-.36,4.29c-.08.31.59-.1.17-.14-.13,0-.14-.09-.12-.27.1-.61,0-1.35,1-1.14.21,1.41,0,2.89,1.13,4.09a1.9,1.9,0,0,1,.12,2.68l-.12.12c-1.57,1.55-.23,2.09.82,2.79-.89,3.22-.18,6.44,0,9.66-.37,3.21.47,6.5-.65,9.65l-.63,9.67h-.66c-.2-.24-.39-.48-.57-.74-.72-.79-.35.26-.36.28a7.93,7.93,0,0,0-.28,1.82c-.16.4.58,0,.16,0-.07,0,0-.11,0-.31.12-.59.06-1.34,1.05-1.06v9.66c.6,3.22-.31,6.45,0,9.67-1.56,3.12-1.49,6.56-1.87,9.91.67,3.4-1.35,6.32-1.67,9.55-1.4,3-3,5.84-2.58,9.3-.94,3.29-.73,6.85-2.35,10-.34.8-.47,1.66-.76,2.48-1.11,2.39-.84,5.24-2.49,7.44-1.52,3-4,5.66-3.49,9.43-.89,2.77-1.19,5.81-3.55,7.92-.41.37-1.11.63-.52,1.39a1.43,1.43,0,0,1,.25.75,3,3,0,0,1-.26.81c-1.32,2.83-2.57,5.68-3.78,8.56-3.66,2-4.41,5.7-5.49,9.22-1.77,2.36-3.12,5-4.69,7.47a3,3,0,0,0-.47,2.7c-.76,3.5-3.23,6.17-4.62,9.37-1.88,1.74-2.89,4.12-4.42,6.12-.94,1.23-1.75,2.66-3.41,3.14-2.09-.81-3.23.18-3.7,2.11-.22,1-.28,1.94-1.17,2.5-3.12,2-4.3,5.37-6.14,8.28A6.36,6.36,0,0,1,486,444c-.78,1.11-1.24,2.43-2.29,3.34a1.89,1.89,0,0,1-1.79,0c-.66-.49-.27-1.48-.64-1.74a366.13,366.13,0,0,1-35.84,35.06c.37.54,1.34,0,1.81.62a1.94,1.94,0,0,1,.11,1.81,10.73,10.73,0,0,1-2.93,3,2.08,2.08,0,0,1-1.82-.14c-.71-.74,0-1.66-.45-3-2.73,3.52-6.68,4.89-9.83,7.58s-7.38,4.81-11,7.29q-7.4,5-15.21,9.27c-.65.36-1.55.52-1.63,1.39-.17,1.87-1,2.17-2.52,1.29a1.44,1.44,0,0,0-1.76,0c-5.5,3.9-11.8,6.24-17.84,9.07-5.38,2.52-11,4.55-16.45,6.78a8.89,8.89,0,0,1-3.25.77c-3.12-.26-4.79,3.34-8,2.62-.74-.16-.76.83-.29,1.42a10.23,10.23,0,0,0,1.78,1.36c.49,2.63-2.11,1.69-3.07,2.65a3.38,3.38,0,0,1-2.22,0,1.23,1.23,0,0,1-.6-.65,1.13,1.13,0,0,1,.17-.76c1.11-1,1.67-1.95-.53-2.15a2.12,2.12,0,0,0-1.27.13c-3.15,2-7.18.94-10.3,3a4.19,4.19,0,0,1-2.51.42c-2.49-.06-4.93,0-7.06,1.6a3.27,3.27,0,0,1-1.87.36,20.19,20.19,0,0,0-8.71,1.66c-2.43,1.15-5.51-.08-8.23.78-5.91,1.86-12,1.41-18.08,1.47a11.29,11.29,0,0,0-3.78.65c-3.49,1.28-7.06,1.12-10.75,1-3.29-.12-6.63-.61-10,.06a18.18,18.18,0,0,1-8.9-.73c-5.34-1.67-10.83-.8-16.24-1.12-.73,0-1.57.32-2.21-.08-3.31-2.06-7-1.81-10.6-1.64a3.38,3.38,0,0,1-1.87-.36c-2.7-1.6-5.66-1.76-8.69-1.7-1.75,0-3.75.63-4.64-1.74-.11-.29-.51-.6-.76-.49-3.85,1.62-7.09-1.09-10.5-1.82s-7-1.28-10.33-2.9a32.3,32.3,0,0,0-7.18-2.54c-4.63-1-8.8-3.15-13.19-4.73-2.87-1-5.77-2.09-8.61-3.17a65.57,65.57,0,0,1-9.13-4.31c-4.32-2.5-8.8-4.71-13.17-7.1-3.84-2.09-7.81-3.88-11.47-6.35-2.51-1.7-4.91-3.81-8.07-4.43a2,2,0,0,1-1-.72c-3.31-3.92-7.7-6.31-12.17-8.59-1.28-.65-1.91-2-3-2.85-.65-.5-1-1.39-2.11-1.15-1.53.32-2.26-.4-2.12-1.93a1.85,1.85,0,0,0-1.29-2c-4.86-1.61-7.5-5.91-11-9.09-1.82-1.63-3.36-3.51-5.71-4.6-2.1-1-2.67-3.55-4.3-5.07-5.34-4.93-9.87-10.7-15.59-15.24-1.23-1-.87-2.61-1.71-3.73s-1.48-1.43-1.85.29c-2.74-.11-3.29-2.35-4.17-4.28-.41-3.45-3-5.46-5.15-7.77a2.57,2.57,0,0,1-1.8-2.23c-1.83-3.74-3.69-7.44-7.52-9.6-1.22-3.36-1.52-7.19-4.81-9.49-2.18-2.5-3.6-5.46-5.18-8.33-.26-.53-.52-1.06-.8-1.58-1.38-3.22-3.61-6.06-4.23-9.62a34,34,0,0,0-4.36-9.64c-1.39-3.18-1.2-7-4.15-9.53-2-3-2.16-6.51-2.66-9.92-.8-3.09-2.17-6-2.82-9.12a5.35,5.35,0,0,1-.47-.76c-1.51-3-1.4-6.64-3.6-9.39-.87-3.2-.71-6.6-2-9.73-.07-3.63-.21-7.24-3.57-9.67h0V302.17a6.87,6.87,0,0,1,0-4.52c2.15-2.87.6-6.14,1.05-9.27-.78,1.34,1.19,3.24-1.05,4.13h0c-2.79-2.8-1-6.51-1.93-9.69a26.15,26.15,0,0,0,0-9.66c.08-2.74.1-5.48.27-8.21A1.34,1.34,0,0,0,0,263.49c3-2.87.84-6.44,1.29-9.66.43-.71.86,0,1.29,0,1.16,1.1.68,2.52.95,4.42-.11-2.47-.22-4.37.44-6.2,0-.43-.55-.22-.12-.18,0,0,0,.11,0,.31-.16.76.08,1.82-1.27,1.66-.16-3.23.46-6.51-.65-9.68L2.63,239c.93-1.42.31-3,.4-4.47.59-3.24.16-6.63,1.42-9.77.39-3.25,1.88-6.3,1.71-9.65,1.66-3.07,1-6.77,2.61-9.85,1.16-3.07,1.27-6.41,2.36-9.49a10.36,10.36,0,0,1,.68-3.43,20.11,20.11,0,0,0,2.55-6.47c.9-3.3,2.3-6.42,3.49-9.61.81-3.32,3-6.11,3.72-9.45,1.72-3.18,3-6.56,4.46-9.86,1.84-3.11,3.3-6.42,5-9.62,2.18-3,2.81-6.9,5.25-9.8,1-3.31,3.69-5.8,4.64-9.15a107.35,107.35,0,0,0,7.66-10.11c.84-1,1.18-2.34,2.07-3.32,2-1.82,3-4.25,4.46-6.42a33.89,33.89,0,0,0,5.31-6.85c1.47-.48,3-.85,3.08-2.88,1.23-3.21,4.43-4.78,6.24-7.5.69-.77,1.45-1.46,2.12-2.25,2.43-3.27,5.56-5.94,7.92-9.27,3.25-2.47,6.14-5.35,9.16-8.09a10.4,10.4,0,0,0,2.24-2c3.15-1.49,4.55-5,7.59-6.62,1.1-1,2.88-1.23,3.48-2.87,2.24-1.41,3.91-3.54,6.21-4.86,1.83-2,4.89-2.26,6.46-4.62.66-1.6,2.23-2.08,3.56-2.85,3.74-1.59,6.58-4.43,9.69-6.89,3.31-1.35,6.26-3.41,9.53-4.82a51.9,51.9,0,0,1,9.64-5.08A28,28,0,0,1,155.69,27c1-.24.83-1,1.33-1.44a50.45,50.45,0,0,0,8.88-3.89,3.52,3.52,0,0,1,.81-.38c3.31-.58,6.14-2.52,9.37-3.3a69.78,69.78,0,0,1,9.78-3.77c2.49-1.31,5.34-1.15,7.94-2,.72,0,1.49.1,2-.66,3.51-.22,6.85-.92,9.66-3.22,3.41.31,6.72.13,9.66-1.94C218.4,6.42,221.76,6.41,224.72,4.52Z" transform="translate(-0.04 0.02)" fill="#f2f2f2"/><path d="M336.12,366.22c2.48-3.23,6.1-5.17,9-7.92a90.05,90.05,0,0,0,20.8-29.4,83.66,83.66,0,0,0,6-17.69c.56-2.83-.19-3.6-2.89-3.59q-36.33.06-72.66,0c-6.83,0-13.66,0-20.48.13-2.23.06-3-.57-2.93-2.81.11-7.62,0-15.24,0-22.86,0-12.88.06-25.77,0-38.64,0-2.53.64-3.24,3.23-3.23q81.26.09,162.53-.07c3.65,0,3.9,1.54,4.6,4.61a150.15,150.15,0,0,1,3.25,22.62c.7,9.95.81,19.91-.83,29.83a59,59,0,0,0-.59,6.36c-.4,7-2.33,13.76-3.6,20.63A128.25,128.25,0,0,1,437,341.32a154.27,154.27,0,0,1-10.05,24c-4.92,9.18-10.06,18.24-16.74,26.26-5.51,6.62-10.8,13.48-17.67,18.83-.88.58-1.38-.14-1.92-.6-11.11-9.4-22.86-18-34.33-26.92-6.33-4.93-12.8-9.69-18.85-15C336.86,367.47,336.17,367.09,336.12,366.22Z" transform="translate(-0.04 0.02)" fill="#4888f3"/><path d="M336.12,366.22c6.13,4.19,11.75,9.06,17.61,13.59s11.6,8.91,17.3,13.49c7.15,5.73,14.63,11,21.49,17.14-3.12,3.78-7.12,6.59-10.91,9.59a152.85,152.85,0,0,1-31.33,18.66A158.27,158.27,0,0,1,332,445.55a177.85,177.85,0,0,1-18.14,4.9,153.48,153.48,0,0,1-17.84,2.65c-9.68.81-19.32,1.84-29.06,1.23a230.13,230.13,0,0,1-24.42-2.66c-4.8-.82-9.59-1.68-14.3-2.81-4.91-1.18-9.72-2.84-14.51-4.46A172.12,172.12,0,0,1,175.87,426c-3.33-2.14-7.07-3.8-9.65-7-1.48-1.62-1.09-3.63-1.09-5.52,0-28-.1-56,.07-83.94,0-4.67-.52-8.71-4.54-11.59-1.24-1.53-.65-2.82.68-3.82,2.38-1.78,4.52-3.89,7.2-5.26a1.51,1.51,0,0,1,1.85.43A105.31,105.31,0,0,0,181.58,333a101.81,101.81,0,0,0,14.17,18.24c7.39,7.3,15.34,13.9,24.61,18.92,6.56,3.55,13.21,6.9,20.25,9.06a108.39,108.39,0,0,0,39,4.62c6.9-.45,13.77-.91,20.51-2.43a97.64,97.64,0,0,0,24.64-8.79c3.37-1.79,6.91-3.29,9.57-6.19A1.6,1.6,0,0,1,336.12,366.22Z" transform="translate(-0.04 0.02)" fill="#3baa59"/><path d="M152.61,408c-5-3.53-9-8.19-13.14-12.63A166.18,166.18,0,0,1,124,376.21c-.49-.72-1.06-1.34-.88-2.29-1.22-1.67-1.07-3.62-1-5.52a123.21,123.21,0,0,0-1.24-20.67c-.43-1.87,1-2.72,2.14-3.59,4.38-3.27,8.56-6.78,13-10a4.44,4.44,0,0,1,3.56-1.07c5.17,3,9.14,7.36,13.14,11.68.93,1,.88,2.38.89,3.67.14,18.78,0,37.55.05,56.33C153.54,405.93,153.57,407.15,152.61,408Z" transform="translate(-0.04 0.02)" fill="#3baa59"/><path d="M160.26,317c3.27,2.18,6,4.19,6,9.06-.24,29.73-.12,59.45-.12,89.18,0,1.29.06,2.57.09,3.86a35.56,35.56,0,0,1-11.59-9.66c-1.36-1.28-1-3-1-4.55,0-15.88.13-31.77-.06-47.65-.13-11.25-.89-22.49-.76-33.74a3,3,0,0,1,.91-3.17c1.56-1.27,3.24-2.37,4.78-3.66C159.12,316,159.81,316,160.26,317Z" transform="translate(-0.04 0.02)" fill="#3baa59"/><path d="M153.22,322a6.25,6.25,0,0,1,.69,3.09c.19,16.28.46,32.56.61,48.83.11,11.8.08,23.6.11,35.4-1.44.72-1.29-1-2-1.33,0-19-.2-37.94.15-56.9.08-4.41-1.67-7.16-4.5-9.79-2.58-2.39-5.19-4.73-7.78-7.1a3,3,0,0,0-2.11-.56.82.82,0,0,1,0-1.16A126.12,126.12,0,0,1,151.74,322,1.2,1.2,0,0,1,153.22,322Z" transform="translate(-0.04 0.02)" fill="#3baa59"/><path d="M121,346.54a8.2,8.2,0,0,1,1.38,4.12c.83,7.76.41,15.53.67,23.29a10.91,10.91,0,0,1-3.86-5.8,8,8,0,0,1-1-4.61c0-4.71.2-9.43-.6-14.11A3.53,3.53,0,0,1,121,346.54Z" transform="translate(-0.04 0.02)" fill="#3baa59"/><path d="M118.45,349.12c1.26,6.31.36,12.7.77,19-3.4-4-5.33-8.79-7.82-13.28a2.08,2.08,0,0,1,.57-2.15C114.14,351.53,115.48,348.85,118.45,349.12Z" transform="translate(-0.04 0.02)" fill="#3baa59"/><path d="M103.07,334.37c.14-2-1.12-3.52-2-5.18.1-2.37-.24-4.61-1.94-6.44-.17-5.5-2.74-10.47-3.45-15.84a104.78,104.78,0,0,0-2.41-14.4c.2-5.55-.43-11.06-.55-16.59a185.25,185.25,0,0,1,1.34-25.79c.38-3.25,1.37-6.43,1.22-9.76,1.31-5.59,3.47-11,3.9-16.79,1.66-1.84,2-4.08,1.92-6.44.81-1.66,2.08-3.14,1.93-5.16.78-1.65,2.11-3.1,1.9-5.12,2.1-2.67,2.93-5.89,3.89-9.05,1.25-1.69,1.52-4.06,3.59-5.18,2.57-.06,4,2,5.71,3.3,13.29,10.31,26.47,20.75,39.84,31,3.89,3,7.86,5.94,11.46,9.3a.93.93,0,0,1-.06.87,114.54,114.54,0,0,0-6.11,41.26,49.28,49.28,0,0,0,1.5,10.94A62.61,62.61,0,0,0,168,304.54a13.26,13.26,0,0,1,.73,5c-2.23,1.65-4.48,3.28-6.68,5-.82.62-1.78,1.21-1.79,2.45-3,.83-4.94,3.07-7,5.12a101.28,101.28,0,0,0-14.82,11.6c-3.64,1.92-6.71,4.64-9.92,7.16-2.45,1.92-4.94,3.78-7.42,5.67-.17,1.56-2.54.9-2.58,2.58l-6.16,4c-1.6-.18-1.5-2.15-2.79-2.65A121.55,121.55,0,0,0,103.07,334.37Z" transform="translate(-0.04 0.02)" fill="#fabf15"/><path d="M169.29,236.47c-4-2.18-7.16-5.41-10.78-8-6.84-5-13.47-10.24-20.1-15.47-7.77-6.14-15.69-12.1-23.31-18.43-.86-.71-2.22-.68-2.64-1.9.46-4.39,3.24-7.73,5.37-11.28,3.31-5.5,7.09-10.73,10.75-16a132.06,132.06,0,0,1,12.47-14.76,5,5,0,0,0,.58-1.09,244.93,244.93,0,0,1,19.9-17.92A198.06,198.06,0,0,1,190.48,113c7-3.7,14.54-6,21.46-9.81l.55,0a15.59,15.59,0,0,0,2.58-1.3h0c1.07-.24,2.31.4,3.22-.64,6-2,12.15-3.29,18.23-4.84a86.37,86.37,0,0,1,16.22-2.45c9.23-.55,18.48-1.43,27.78-.75,4.75.36,9.54.25,14.31.35a24.6,24.6,0,0,0,9.57,2c4.56-.09,8.67,1.55,12.89,2.55a188.2,188.2,0,0,1,32.45,11.33,94.94,94.94,0,0,1,8.5,4.84,7.91,7.91,0,0,0,3.63,1.12c.32,2.22,2.61,2,3.9,2.83,4.58,2.81,8.6,6.48,13.5,8.77.25,1.45,1.44,1.64,2.58,1.9,2.67,3.34,6.37,5.53,9.48,8.39,1.55,1.42,1.59,2.4,0,3.87-4.39,4.16-8.65,8.47-13,12.69a2.61,2.61,0,0,0-1,1.53,2.44,2.44,0,0,0-1.69.8c-6,6.28-12.56,12-18.29,18.48-2.62,1.23-4.23,3.51-5.89,5.74-3.25,2.08-5.68,5-8.35,7.75-4.4-2.41-7.71-6.23-11.86-9-7.35-5-15.34-8.51-23.42-12a9,9,0,0,0-2.54-.27A50.84,50.84,0,0,0,289,162.94c-4.38-.37-8.69-1.51-13.14-1.63a54.57,54.57,0,0,0-13.2.81c-5.57,1.22-11.46.7-16.84,2.94-3.37,1.41-7.32,1.21-10.26,3.76-4.22.31-7.63,2.73-11.24,4.53-1.15.57-2.63.79-3.49,2a26.37,26.37,0,0,0-8.38,5.16h0c-.91.59-1.68,1.35-2.59,1.94-4.78,2.59-8.57,6.37-12.23,10.3a35.38,35.38,0,0,0-7.83,8.32,94.12,94.12,0,0,0-15.61,24.31c-1.23,2.85-2.65,5.62-3.63,8.58C170,234.65,170.65,236,169.29,236.47Z" transform="translate(-0.04 0.02)" fill="#eb5042"/></svg>